<?xml version="1.0" standalone="no"?>
<!DOCTYPE svg PUBLIC "-//W3C//DTD SVG 20010904//EN"
 "http://www.w3.org/TR/2001/REC-SVG-20010904/DTD/svg10.dtd">
<svg version="1.0" xmlns="http://www.w3.org/2000/svg"
 width="512.000000pt" height="512.000000pt" viewBox="0 0 512.000000 512.000000"
 preserveAspectRatio="xMidYMid meet">
<metadata>
Created by potrace 1.14, written by Peter Selinger 2001-2017
</metadata>
<g transform="translate(0.000000,512.000000) scale(0.100000,-0.100000)"
fill="#000000" stroke="none">
<path d="M2520 4794 c-22 -9 -749 -735 -764 -764 -10 -18 -14 -79 -14 -220 0
-107 -1 -201 -1 -208 -1 -12 -43 -11 -91 3 -8 2 -33 6 -55 9 -22 3 -105 16
-185 30 -80 13 -163 27 -185 30 -23 4 -51 8 -63 11 -38 7 -76 -11 -173 -81
-52 -38 -98 -72 -104 -77 -8 -7 -155 -115 -263 -195 -43 -31 -117 -86 -199
-147 -127 -93 -131 -119 -40 -259 34 -53 110 -170 169 -259 58 -89 154 -235
212 -324 59 -90 117 -170 130 -178 13 -9 99 -34 192 -55 92 -22 169 -42 171
-44 3 -2 -45 -54 -106 -115 -61 -61 -113 -121 -116 -134 -3 -12 -4 -258 -3
-546 l3 -523 35 -29 34 -29 527 0 526 0 29 22 c16 13 107 101 201 196 l173
172 184 -184 c101 -101 192 -189 203 -195 27 -14 1040 -16 1077 -1 14 5 35 24
46 42 19 32 20 51 20 545 0 310 -4 522 -10 537 -5 15 -57 74 -116 132 -58 58
-104 107 -102 109 1 1 80 19 173 39 94 20 186 44 205 52 30 13 56 49 195 276
88 143 172 279 186 302 109 172 179 294 179 312 0 58 -19 79 -143 160 -67 43
-204 133 -304 199 -429 282 -425 279 -462 279 -20 -1 -47 -3 -61 -6 -132 -30
-444 -88 -448 -84 -3 3 -5 97 -5 208 1 149 -3 210 -13 228 -7 14 -179 191
-382 393 -344 343 -371 369 -408 372 -21 3 -46 2 -54 -1z m344 -556 l302 -303
-1 -236 0 -235 -80 -101 c-44 -55 -91 -115 -105 -133 -14 -19 -37 -48 -51 -64
-14 -17 -78 -97 -142 -178 -63 -81 -117 -142 -119 -135 -2 7 -3 218 -3 470 l1
457 -106 0 -106 0 0 -465 c1 -256 -2 -465 -6 -465 -3 0 -100 118 -214 263
-114 144 -224 282 -243 306 l-36 44 0 236 -1 236 301 302 c165 166 301 302
303 302 2 1 139 -135 306 -301z m-1632 -782 c69 -12 95 -16 158 -26 115 -19
124 -20 180 -30 94 -17 101 -19 159 -41 46 -18 64 -33 103 -83 25 -34 132
-169 237 -301 105 -131 189 -240 188 -242 -2 -1 -48 11 -102 28 -55 16 -152
45 -215 64 -63 18 -222 65 -352 104 -131 39 -239 71 -241 71 -3 0 -13 -28 -22
-62 -41 -141 -41 -144 -13 -150 12 -3 147 -42 298 -88 151 -45 345 -102 430
-127 85 -25 159 -49 163 -53 5 -4 -25 -19 -65 -34 -459 -169 -598 -221 -627
-233 -32 -14 -44 -13 -215 27 -99 23 -202 47 -228 52 -46 10 -47 11 -152 169
-58 87 -106 163 -106 168 0 5 -3 11 -7 13 -5 2 -58 80 -120 175 l-112 172 62
45 c34 25 67 49 72 53 6 5 89 66 185 137 96 71 190 141 209 155 51 39 75 51
88 46 6 -2 27 -6 45 -9z m2843 -124 c105 -68 222 -146 262 -173 39 -27 76 -49
81 -49 6 0 12 -3 14 -7 4 -10 65 -53 74 -53 4 0 16 -7 26 -17 15 -14 16 -19 5
-32 -8 -9 -103 -161 -211 -338 -109 -178 -203 -323 -209 -324 -19 -1 -44 -6
-213 -44 -87 -20 -166 -38 -174 -39 -85 -17 -76 -20 -460 123 l-374 139 70 20
c38 12 123 37 189 57 66 20 127 38 135 40 8 2 123 36 255 76 132 39 250 74
263 76 12 3 22 12 22 20 0 14 -49 184 -55 191 -2 2 -72 -17 -156 -43 -85 -25
-161 -48 -169 -50 -8 -2 -121 -35 -250 -73 -378 -113 -344 -105 -329 -83 8 11
76 97 152 193 76 95 177 223 225 284 85 108 89 112 157 137 39 15 85 29 103
32 18 3 65 12 105 21 39 8 86 17 102 20 17 3 57 11 90 18 33 7 65 10 70 7 6
-3 96 -61 200 -129z m-1821 -1044 c-4 -7 -19 -29 -33 -48 -14 -19 -74 -102
-133 -185 -59 -82 -116 -161 -125 -174 -10 -13 -57 -78 -105 -145 -48 -67
-103 -143 -123 -170 l-35 -49 22 -15 c13 -9 25 -19 28 -22 7 -9 124 -90 125
-87 1 1 73 100 159 220 87 120 170 236 184 256 155 219 228 319 232 316 4 -2
5 -809 1 -891 -1 -13 -70 -90 -184 -205 l-184 -184 -419 0 -419 0 0 419 0 419
147 146 147 147 223 83 c123 45 282 105 353 131 143 54 149 56 139 38z m983
-124 l344 -128 147 -146 147 -147 -1 -414 c-1 -228 -2 -416 -3 -419 0 -3 -189
-5 -418 -5 l-418 1 -184 184 -185 185 0 438 c-1 241 1 444 4 451 3 8 131 -167
289 -395 163 -233 289 -405 295 -402 6 4 46 31 88 61 l77 55 -53 76 c-29 42
-75 108 -101 146 -117 168 -213 306 -272 390 -157 225 -147 208 -123 202 13
-3 178 -63 367 -133z"/>
</g>
</svg>
