<?xml version="1.0" standalone="no"?>
<!DOCTYPE svg PUBLIC "-//W3C//DTD SVG 20010904//EN"
 "http://www.w3.org/TR/2001/REC-SVG-20010904/DTD/svg10.dtd">
<svg version="1.0" xmlns="http://www.w3.org/2000/svg"
 width="454.000000pt" height="454.000000pt" viewBox="0 0 454.000000 454.000000"
 preserveAspectRatio="xMidYMid meet">
<metadata>
Created by potrace 1.14, written by Peter Selinger 2001-2017
</metadata>
<g transform="translate(0.000000,454.000000) scale(0.100000,-0.100000)"
fill="#000000" stroke="none">
<path d="M2157 4534 c-1 -1 -47 -4 -102 -7 -499 -29 -979 -248 -1341 -611
-152 -153 -254 -290 -382 -514 -101 -178 -116 -209 -166 -337 -16 -38 -31 -77
-36 -85 -22 -45 -81 -308 -97 -435 -10 -79 -10 -413 0 -493 27 -222 90 -443
182 -639 75 -159 266 -476 332 -548 10 -11 30 -36 44 -55 38 -51 223 -231 299
-291 83 -65 206 -146 295 -194 39 -21 75 -41 80 -45 53 -36 349 -139 470 -164
44 -9 91 -19 105 -21 14 -3 48 -8 75 -11 28 -3 75 -9 105 -12 109 -14 511 -6
620 13 14 2 42 6 62 9 21 3 59 11 85 17 27 6 55 12 63 14 118 24 305 93 445
164 78 39 241 135 255 151 3 3 23 17 45 32 108 74 243 203 390 371 28 32 117
160 152 218 222 364 311 585 368 914 13 76 20 192 20 330 0 130 -3 181 -20
315 -2 14 -11 61 -20 105 -9 44 -18 88 -20 97 -22 110 -150 415 -229 547 -19
31 -43 72 -54 92 -39 69 -47 83 -106 168 -85 122 -135 182 -256 302 -316 316
-728 518 -1189 583 -88 13 -463 28 -474 20z"/>
</g>
</svg>
