<svg width="12" height="195" viewBox="0 0 12 195" fill="none" xmlns="http://www.w3.org/2000/svg">
<path d="M6.75 1L6.75 0.25L5.25 0.25L5.25 1L6.75 1ZM5.46968 194.53C5.76257 194.823 6.23745 194.823 6.53034 194.53L11.3033 189.757C11.5962 189.464 11.5962 188.99 11.3033 188.697C11.0104 188.404 10.5355 188.404 10.2426 188.697L6.00001 192.939L1.75737 188.697C1.46447 188.404 0.989601 188.404 0.696707 188.697C0.403814 188.99 0.403814 189.464 0.696707 189.757L5.46968 194.53ZM5.25 1L5.25001 194L6.75001 194L6.75 1L5.25 1Z" fill="#0E172C"/>
</svg>
