<svg fill="none" viewBox="0 0 360 360" xmlns="http://www.w3.org/2000/svg"><g stroke="#0e172c" stroke-linecap="square" stroke-linejoin="round" stroke-width="7.5"><path d="m316.25 43.75-17.5 17.5m-51.25 51.25h32.5l18.75-18.75v-32.5m-51.25 51.25v-33.75l17.5-17.5h33.75m-51.25 51.25 51.25-51.25"/><path d="m316.25 333.75-17.5-17.5m-51.25-51.25h32.5l18.75 18.75v32.5m-51.25-51.25v33.75l17.5 17.5h33.75m-51.25-51.25 51.25 51.25"/><path d="m45 333.75 17.5-17.5m51.25-51.25h-32.5l-18.75 18.75v32.5m51.25-51.25v33.75l-17.5 17.5h-33.75m51.25-51.25-51.25 51.25"/><path d="m45 45 17.5 17.5m51.25 51.25h-32.5l-18.75-18.75v-32.5m51.25 51.25v-33.75l-17.5-17.5h-33.75m51.25 51.25-51.25-51.25"/><path d="m181.25 140v46.25m0 0v52.5m0-52.5 46.25-13.75m-46.25 13.75-46.25-13.75m46.25 13.75-28.75 40m28.75-40 28.75 41.25m-28.75-41.25 28.75-36.25m-28.75 36.25 43.75 16.25m-43.75-16.25-43.75 16.25m43.75-16.25-28.75-36.25m28.75 88.75 17.5 17.5h40v-40l-13.75-13.75m-43.75 36.25-17.5 17.5h-40v-40l13.75-13.75m87.5 0 22.5-5 20-32.5-32.5-21.25-18.75 3.75-6.25 2.5m-72.5 52.5-21.25-5-21.25-32.5 28.75-21.25 22.5 3.75 6.25 2.5m0 0v-22.5l28.75-28.75 28.75 28.75v22.5"/><path d="m181.25 27.5-15-15h-33.75v31.25l16.25 16.25h32.5m0-32.5v32.5m0-32.5 15-15h33.75v31.25l-16.25 16.25h-32.5m0 0 23.75-23.75m-23.75 23.75-23.75-23.75"/><path d="m332.5 178.75 15-15v-33.75h-31.25l-16.25 16.25v32.5m32.5 0h-32.5m32.5 0 15 15v33.75h-31.25l-16.25-16.25v-32.5m0 0 23.75 23.75m-23.75-23.75 23.75-23.75"/><path d="m181.25 330 15 15h33.75v-31.25l-16.25-16.25h-32.5m0 32.5v-32.5m0 32.5-15 15h-33.75v-31.25l16.25-16.25h32.5m0 0-23.75 23.75m23.75-23.75 23.75 23.75"/><path d="m30 178.75-15 15v33.75h31.25l16.25-16.25v-32.5m-32.5 0h32.5m-32.5 0-15-15v-33.75h31.25l16.25 16.25v32.5m0 0-23.75-23.75m23.75 23.75-23.75 23.75"/></g></svg>