<svg fill="none" viewBox="0 0 32 32" xmlns="http://www.w3.org/2000/svg"><path clip-rule="evenodd" d="m6.67188 9.33464h18.66662c.7364 0 1.3334.59694 1.3334 1.33336v10.6666c0 .7364-.597 1.3334-1.3334 1.3334h-18.66662c-.73638 0-1.33334-.597-1.33334-1.3334v-10.6666c0-.7364.59696-1.33336 1.33334-1.33336zm-4 1.33336c0-2.20916 1.79086-4.00003 4-4.00003h18.66662c2.2092 0 4 1.79087 4 4.00003v10.6666c0 2.2092-1.7908 4-4 4h-18.66662c-2.20914 0-4-1.7908-4-4zm10.66662 1.3333 5.3334 4-5.3334 4z" fill="#000000" fill-rule="evenodd"/></svg>