<svg width="36" height="33" viewBox="0 0 36 33" fill="none" xmlns="http://www.w3.org/2000/svg">
<path d="M17.9999 9.30433V18.2415M17.9999 18.2415V28.3864M17.9999 18.2415L26.9371 15.5845M17.9999 18.2415L9.06272 15.5845M17.9999 18.2415L12.4444 25.971M17.9999 18.2415L23.5555 26.2125M17.9999 18.2415L23.5555 11.2367M17.9999 18.2415L26.454 21.3816M17.9999 18.2415L9.54581 21.3816M17.9999 18.2415L12.4444 11.2367M17.9999 28.3864L21.3816 31.7681H29.111V24.0386L26.454 21.3816M17.9999 28.3864L14.6183 31.7681H6.88881V24.0386L9.54581 21.3816M26.454 21.3816L30.8018 20.4154L34.6666 14.1352L28.3864 10.029L24.7632 10.7536L23.5555 11.2367M9.54581 21.3816L5.43953 20.4154L1.33325 14.1352L6.88881 10.029L11.2366 10.7536L12.4444 11.2367M12.4444 11.2367V6.88887L17.9999 1.33331L23.5555 6.88887V11.2367" stroke="#0E172C" stroke-width="1.66667" stroke-linecap="square" stroke-linejoin="round"/>
</svg>
