<?xml version="1.0" encoding="utf-8"?>
<!-- Generator: Adobe Illustrator 23.1.0, SVG Export Plug-In . SVG Version: 6.00 Build 0)  -->
<svg version="1.1" id="Layer_1" xmlns="http://www.w3.org/2000/svg" xmlns:xlink="http://www.w3.org/1999/xlink" x="0px" y="0px"
	 viewBox="0 0 360 360" style="enable-background:new 0 0 360 360;" xml:space="preserve">
<style type="text/css">
	.st0{fill:#fff;}
</style>
<g>
	<path class="st0" d="M282.7,115.2l18.8-18.8c0.7-0.7,1.1-1.7,1.1-2.7V62.8l19.1-19.1l-5.3-5.3l-19.1,19.1H265c-1,0-1.9,0.4-2.7,1.1
		l-17.5,17.5c-0.7,0.7-1.1,1.7-1.1,2.7v37.5H280C281,116.3,281.9,115.9,282.7,115.2z M251.3,80.3L266.6,65h23.1l-38.4,38.4V80.3z
		 M256.6,108.8L295,70.3v21.9l-16.6,16.6H256.6z"/>
	<path class="st0" d="M302.5,283.8c0-1-0.4-1.9-1.1-2.7l-18.8-18.8c-0.7-0.7-1.7-1.1-2.7-1.1h-36.3v37.5c0,1,0.4,1.9,1.1,2.7
		l17.5,17.5c0.7,0.7,1.7,1.1,2.7,1.1h32.2l19.1,19.1l5.3-5.3l-19.1-19.1V283.8z M266.6,312.5l-15.3-15.3v-23.1l38.4,38.4H266.6z
		 M295,307.2l-38.4-38.4h21.9l16.6,16.6V307.2z"/>
	<path class="st0" d="M78.6,262.3l-18.8,18.8c-0.7,0.7-1.1,1.7-1.1,2.7v30.9l-19.1,19.1l5.3,5.3L64.1,320h32.2c1,0,1.9-0.4,2.7-1.1
		l17.5-17.5c0.7-0.7,1.1-1.7,1.1-2.7v-37.5H81.3C80.3,261.3,79.3,261.6,78.6,262.3z M110,297.2l-15.3,15.3H71.6l38.4-38.4V297.2z
		 M104.7,268.8l-38.4,38.4v-21.9l16.6-16.6H104.7z"/>
	<path class="st0" d="M58.8,95c0,1,0.4,1.9,1.1,2.7l18.8,18.8c0.7,0.7,1.7,1.1,2.7,1.1h36.3V80c0-1-0.4-1.9-1.1-2.7L98.9,59.8
		c-0.7-0.7-1.7-1.1-2.7-1.1H64.1L45,39.7L39.7,45l19.1,19.1V95z M94.7,66.3L110,81.6v23.1L71.6,66.3H94.7z M66.3,71.6l38.4,38.4
		H82.8L66.3,93.4V71.6z"/>
	<path class="st0" d="M232.5,204.7l15.8-3.5c1-0.2,1.8-0.8,2.4-1.7l20-32.5c1.1-1.7,0.6-4-1.1-5.1l-32.5-21.3
		c-0.8-0.5-1.8-0.7-2.8-0.5l-18.8,3.8c-0.2,0-0.4,0.1-0.7,0.2l-1.1,0.4v-17c0-1-0.4-1.9-1.1-2.7l-28.8-28.8c-1.5-1.5-3.8-1.5-5.3,0
		l-28.8,28.8c-0.7,0.7-1.1,1.7-1.1,2.7v17l-1.1-0.4c-0.3-0.1-0.5-0.2-0.8-0.2l-22.5-3.8c-1-0.2-2,0.1-2.8,0.7L92.8,162
		c-1.6,1.2-2,3.4-0.9,5.1l21.3,32.5c0.5,0.8,1.3,1.4,2.3,1.6l14.7,3.5l-9,9c-0.7,0.7-1.1,1.7-1.1,2.7v40c0,2.1,1.7,3.8,3.8,3.8h40
		c1,0,1.9-0.4,2.7-1.1l14.8-14.8l14.8,14.8c0.7,0.7,1.7,1.1,2.7,1.1h40c2.1,0,3.8-1.7,3.8-3.8v-40c0-1-0.4-1.9-1.1-2.7L232.5,204.7z
		 M217.3,151.1l16.9-3.4l28.2,18.4l-17.3,28l-19.9,4.4l-32.2-12l39.1-11.6l-2.1-7.2l-38.5,11.4l20.7-26.2L217.3,151.1z M118.6,194.2
		l-18.5-28.3l24.6-18.2l20.5,3.4l4.9,2l20.7,26.2l-38.5-11.4l-2.1,7.2l39.1,11.6l-32.2,11.9L118.6,194.2z M177.5,237.2l-15.3,15.3
		h-34.7v-34.7l12.1-12.1L171,194l-23.8,33.1l6.1,4.4l24.1-33.6V237.2z M177.5,136.3v39.2l-21.3-26.8v-19.6l25-25l25,25v19.6
		L185,175.5v-39.2H177.5z M235,252.5h-34.7L185,237.2v-39l24.1,34.5l6.2-4.3l-24-34.5l31.7,11.8l12.1,12.1V252.5z"/>
	<path class="st0" d="M146.1,62.7c0.7,0.7,1.7,1.1,2.7,1.1h65c1,0,1.9-0.4,2.7-1.1l16.3-16.3c0.7-0.7,1.1-1.7,1.1-2.7V12.5
		c0-2.1-1.7-3.8-3.8-3.8h-33.8c-1,0-1.9,0.4-2.7,1.1l-12.3,12.3L168.9,9.8c-0.7-0.7-1.7-1.1-2.7-1.1h-33.8c-2.1,0-3.8,1.7-3.8,3.8
		v31.3c0,1,0.4,1.9,1.1,2.7L146.1,62.7z M185,29.1l12.8-12.8h28.4v25.9l-14.1,14.1h-21.9l20-20l-5.3-5.3l-20,20V29.1z M136.3,16.3
		h28.4l12.8,12.8v21.9l-20-20l-5.3,5.3l20,20h-21.9l-14.1-14.1V16.3z"/>
	<path class="st0" d="M351.3,163.8V130c0-2.1-1.7-3.8-3.8-3.8h-31.3c-1,0-1.9,0.4-2.7,1.1l-16.3,16.3c-0.7,0.7-1.1,1.7-1.1,2.7v65
		c0,1,0.4,1.9,1.1,2.7l16.3,16.3c0.7,0.7,1.7,1.1,2.7,1.1h31.3c2.1,0,3.8-1.7,3.8-3.8v-33.8c0-1-0.4-1.9-1.1-2.7l-12.3-12.3
		l12.3-12.3C350.9,165.7,351.3,164.7,351.3,163.8z M343.8,195.3v28.4h-25.9l-14.1-14.1v-21.9l20,20l5.3-5.3l-20-20h21.9L343.8,195.3
		z M343.8,162.2L330.9,175h-21.9l20-20l-5.3-5.3l-20,20v-21.9l14.1-14.1h25.9V162.2z"/>
	<path class="st0" d="M216.4,294.8c-0.7-0.7-1.7-1.1-2.7-1.1h-65c-1,0-1.9,0.4-2.7,1.1l-16.3,16.3c-0.7,0.7-1.1,1.7-1.1,2.7V345
		c0,2.1,1.7,3.8,3.8,3.8h33.8c1,0,1.9-0.4,2.7-1.1l12.3-12.3l12.3,12.3c0.7,0.7,1.7,1.1,2.7,1.1H230c2.1,0,3.8-1.7,3.8-3.8v-31.3
		c0-1-0.4-1.9-1.1-2.7L216.4,294.8z M177.5,328.4l-12.8,12.8h-28.4v-25.9l14.1-14.1h21.9l-20,20l5.3,5.3l20-20V328.4z M226.3,341.3
		h-28.4L185,328.4v-21.9l20,20l5.3-5.3l-20-20h21.9l14.1,14.1V341.3z"/>
	<path class="st0" d="M48.9,230.2l16.3-16.3c0.7-0.7,1.1-1.7,1.1-2.7v-65c0-1-0.4-1.9-1.1-2.7l-16.3-16.3c-0.7-0.7-1.7-1.1-2.7-1.1
		H15c-2.1,0-3.8,1.7-3.8,3.8v33.8c0,1,0.4,1.9,1.1,2.7l12.3,12.3l-12.3,12.3c-0.7,0.7-1.1,1.7-1.1,2.7v33.8c0,2.1,1.7,3.8,3.8,3.8
		h31.3C47.2,231.3,48.2,230.9,48.9,230.2z M18.8,162.2v-28.4h25.9l14.1,14.1v21.9l-20-20l-5.3,5.3l20,20H31.6L18.8,162.2z
		 M18.8,223.8v-28.4l12.8-12.8h21.9l-20,20l5.3,5.3l20-20v21.9l-14.1,14.1H18.8z"/>
</g>
</svg>
