<svg fill="none" viewBox="0 0 24 24" xmlns="http://www.w3.org/2000/svg"><path d="m12 6.78261v5.36229m0 0v6.087m0-6.087 5.3623-1.5942m-5.3623 1.5942-5.36232-1.5942m5.36232 1.5942-3.33333 4.6377m3.33333-4.6377 3.3333 4.7826m-3.3333-4.7826 3.3333-4.20287m-3.3333 4.20287 5.0725 1.8841m-5.0725-1.8841-5.07246 1.8841m5.07246-1.8841-3.33333-4.20287m3.33333 10.28987 2.029 2.029h4.6377v-4.6377l-1.5942-1.5942m-5.0725 4.2029-2.02899 2.029h-4.63768v-4.6377l1.59421-1.5942m10.14496 0 2.6087-.5797 2.3188-3.76814-3.7681-2.46377-2.1739.43478-.7247.28986m-8.40576 6.08697-2.46377-.5797-2.46377-3.76814 3.33333-2.46377 2.6087.43478.72464.28986m0 0v-2.6087l3.33333-3.33333 3.3333 3.33333v2.6087" stroke="#0e172c" stroke-linecap="square" stroke-linejoin="round"/></svg>